<?xml version="1.0" encoding="utf-8"?>
<!-- Generator: Adobe Illustrator 18.0.0, SVG Export Plug-In . SVG Version: 6.00 Build 0)  -->
<!DOCTYPE svg PUBLIC "-//W3C//DTD SVG 1.1//EN" "http://www.w3.org/Graphics/SVG/1.1/DTD/svg11.dtd">
<svg version="1.1" xmlns="http://www.w3.org/2000/svg" xmlns:xlink="http://www.w3.org/1999/xlink" x="0px" y="0px"
	 viewBox="0 0 792 612" enable-background="new 0 0 792 612" xml:space="preserve">
<g id="_x33_342">
	<polygon fill="none" stroke="#000000" stroke-width="0.5" stroke-miterlimit="10" points="352.4,359.4 361,354.5 365.9,363.1
		362.4,369.2 352.4,369.2 	"/>
</g>
<g id="_x33_341">
	<polygon fill="none" stroke="#000000" stroke-width="0.5" stroke-miterlimit="10" points="378.1,354.7 369.6,349.8 361.1,354.7
		366.1,363.3 373.2,363.3 	"/>
</g>
<g id="_x33_340">
	<polygon fill="none" stroke="#000000" stroke-width="0.5" stroke-miterlimit="10" points="378,355 369.5,350.2 369.5,340.3
		379.4,340.3 382.9,346.4 	"/>
</g>
<g id="_x33_339">
	<polygon fill="none" stroke="#000000" stroke-width="0.5" stroke-miterlimit="10" points="378,325.3 369.5,330.2 369.5,340.1
		379.4,340.1 383,333.9 	"/>
</g>
<g id="_x33_338">
	<polygon fill="none" stroke="#000000" stroke-width="0.5" stroke-miterlimit="10" points="361.1,324.7 369.6,329.6 369.6,339.5
		359.7,339.5 356.1,333.3 	"/>
</g>
<g id="_x33_337">
	<polygon fill="none" stroke="#000000" stroke-width="0.5" stroke-miterlimit="10" points="360.7,354.5 369.2,349.6 369.2,339.8
		359.3,339.8 355.7,345.9 	"/>
</g>
<g id="_x33_336">
	<polygon fill="none" stroke="#000000" stroke-width="0.5" stroke-miterlimit="10" points="352.3,359.4 343.8,354.5 348.8,345.9
		355.8,345.9 360.8,354.5 	"/>
</g>
<g id="_x33_335">
	<polygon fill="none" stroke="#000000" stroke-width="0.5" stroke-miterlimit="10" points="352.2,359.6 343.7,354.6 338.8,363.3
		342.3,369.4 352.2,369.4 	"/>
</g>
<g id="_x33_348">
	<polygon fill="none" stroke="#000000" stroke-width="0.5" stroke-miterlimit="10" points="314.5,393.5 306,388.6 306,378.8
		315.9,378.8 319.5,384.9 	"/>
</g>
<g id="_x33_349">
	<polygon fill="none" stroke="#000000" stroke-width="0.5" stroke-miterlimit="10" points="323,398.5 314.5,393.6 319.5,385
		326.5,385 331.5,393.6 	"/>
</g>
<g id="_x33_350">
	<polygon fill="none" stroke="#000000" stroke-width="0.5" stroke-miterlimit="10" points="331.2,393.3 339.7,388.4 339.7,378.5
		329.8,378.5 326.3,384.7 	"/>
</g>
<g id="_x33_351">
	<polygon fill="none" stroke="#000000" stroke-width="0.5" stroke-miterlimit="10" points="348.3,393.4 339.8,388.5 339.8,378.7
		349.7,378.7 353.3,384.8 	"/>
</g>
<g id="_x33_352">
	<polygon fill="none" stroke="#000000" stroke-width="0.5" stroke-miterlimit="10" points="348.3,394.3 339.8,389.4 331.3,394.3
		336.3,402.9 343.4,402.9 	"/>
</g>
<g id="_x33_353">
	<polygon fill="none" stroke="#000000" stroke-width="0.5" stroke-miterlimit="10" points="323.2,399.4 331.8,394.5 336.7,403.2
		333.2,409.3 323.2,409.2 	"/>
</g>
<g id="_x33_354">
	<polygon fill="none" stroke="#000000" stroke-width="0.5" stroke-miterlimit="10" points="314.2,394.1 322.7,399 322.7,408.8
		312.8,408.8 309.3,402.7 	"/>
</g>
<g id="_x33_355">
	<polygon fill="none" stroke="#000000" stroke-width="0.5" stroke-miterlimit="10" points="314.4,393.6 305.9,388.7 297.4,393.6
		302.4,402.2 309.4,402.2 	"/>
</g>
<g id="_x33_347">
	<polygon fill="none" stroke="#000000" stroke-width="0.5" stroke-miterlimit="10" points="297.3,393.5 305.8,388.6 305.8,378.8
		295.9,378.8 292.4,384.9 	"/>
</g>
<g id="_x33_364">
	<polygon fill="none" stroke="#000000" stroke-width="0.5" stroke-miterlimit="10" points="331.4,324.4 322.9,329.3 322.9,339.1
		332.8,339.1 336.3,333 	"/>
</g>
<g id="_x33_365">
	<polygon fill="none" stroke="#000000" stroke-width="0.5" stroke-miterlimit="10" points="331.7,354.3 323.2,349.4 323.2,339.6
		333.2,339.6 336.7,345.7 	"/>
</g>
<g id="_x33_366">
	<polygon fill="none" stroke="#000000" stroke-width="0.5" stroke-miterlimit="10" points="331.5,354.5 323,349.6 314.5,354.6
		319.5,363.2 326.5,363.1 	"/>
</g>
<g id="_x33_367">
	<polygon fill="none" stroke="#000000" stroke-width="0.5" stroke-miterlimit="10" points="306.3,359.9 314.8,355 319.8,363.6
		316.3,369.7 306.3,369.7 	"/>
</g>
<g id="_x33_360">
	<polygon fill="none" stroke="#000000" stroke-width="0.5" stroke-miterlimit="10" points="305.8,359.6 297.3,354.7 292.4,363.3
		295.9,369.4 305.8,369.4 	"/>
</g>
<g id="_x33_361">
	<polygon fill="none" stroke="#000000" stroke-width="0.5" stroke-miterlimit="10" points="305.9,360 297.4,355 302.3,346.4
		309.4,346.4 314.4,355 	"/>
</g>
<g id="_x33_362">
	<polygon fill="none" stroke="#000000" stroke-width="0.5" stroke-miterlimit="10" points="314.2,354.9 322.7,350 322.7,340.2
		312.8,340.2 309.3,346.3 	"/>
</g>
<g id="_x33_363">
	<polygon fill="none" stroke="#000000" stroke-width="0.5" stroke-miterlimit="10" points="313.9,325.3 322.4,330.2 322.4,340.1
		312.4,340.1 308.9,333.9 	"/>
</g>
</svg>
