<?xml version="1.0" encoding="UTF-8" standalone="no"?>
<svg width="266px" height="250px" viewBox="0 0 266 250" version="1.1" xmlns="http://www.w3.org/2000/svg" xmlns:xlink="http://www.w3.org/1999/xlink" xmlns:sketch="http://www.bohemiancoding.com/sketch/ns">
    <!-- Generator: Sketch 3.3.1 (12005) - http://www.bohemiancoding.com/sketch -->
    <title>Floorplan</title>
    <desc>Created with Sketch.</desc>
    <defs></defs>
    <g id="Page-1" stroke="none" stroke-width="1" fill="none" fill-rule="evenodd" sketch:type="MSPage">
        <g id="_x33_342" sketch:type="MSLayerGroup" transform="translate(174.952716, 87.333939)" stroke="#000000" stroke-width="0.5">
            <path d="M1.16190044,15.6856559 L26.1427598,1.45237555 L40.3760402,26.4332349 L30.2094113,44.1522166 L1.16190044,44.1522166 L1.16190044,15.6856559 Z" id="Shape" sketch:type="MSShapeGroup"></path>
        </g>
        <g id="_x33_341" sketch:type="MSLayerGroup" transform="translate(201.095476, 72.810184)" stroke="#000000" stroke-width="0.5">
            <path d="M49.6712436,16.5570812 L24.9808594,2.32380087 L0.290475109,16.5570812 L14.8142306,41.5379406 L35.4379633,41.5379406 L49.6712436,16.5570812 Z" id="Shape" sketch:type="MSShapeGroup"></path>
        </g>
        <g id="_x33_340" sketch:type="MSLayerGroup" transform="translate(224.333485, 46.667424)" stroke="#000000" stroke-width="0.5">
            <path d="M26.1427598,43.5712664 L1.45237555,29.6284611 L1.45237555,0.871425327 L30.2094113,0.871425327 L40.3760402,18.590407 L26.1427598,43.5712664 Z" id="Shape" sketch:type="MSShapeGroup"></path>
        </g>
        <g id="_x33_339" sketch:type="MSLayerGroup" transform="translate(224.333485, 3.096157)" stroke="#000000" stroke-width="0.5">
            <path d="M26.1427598,0.871425327 L1.45237555,15.1047057 L1.45237555,43.8617415 L30.2094113,43.8617415 L40.6665153,25.8522847 L26.1427598,0.871425327 Z" id="Shape" sketch:type="MSShapeGroup"></path>
        </g>
        <g id="_x33_338" sketch:type="MSLayerGroup" transform="translate(186.571721, 0.191406)" stroke="#000000" stroke-width="0.5">
            <path d="M14.8142306,2.03332576 L39.5046148,16.2666061 L39.5046148,45.0236419 L10.747579,45.0236419 L0.290475109,27.0141851 L14.8142306,2.03332576 Z" id="Shape" sketch:type="MSShapeGroup"></path>
        </g>
        <g id="_x33_337" sketch:type="MSLayerGroup" transform="translate(183.666969, 43.762673)" stroke="#000000" stroke-width="0.5">
            <path d="M16.5570812,45.0236419 L41.2474655,30.7903616 L41.2474655,2.32380087 L12.4904297,2.32380087 L2.03332576,20.0427825 L16.5570812,45.0236419 Z" id="Shape" sketch:type="MSShapeGroup"></path>
        </g>
        <g id="_x33_336" sketch:type="MSLayerGroup" transform="translate(148.809956, 61.191179)" stroke="#000000" stroke-width="0.5">
            <path d="M27.0141851,41.8284157 L2.32380087,27.5951354 L16.8475563,2.61427598 L37.180814,2.61427598 L51.7045694,27.5951354 L27.0141851,41.8284157 Z" id="Shape" sketch:type="MSShapeGroup"></path>
        </g>
        <g id="_x33_335" sketch:type="MSLayerGroup" transform="translate(134.286201, 87.333939)" stroke="#000000" stroke-width="0.5">
            <path d="M41.2474655,16.2666061 L16.5570812,1.74285065 L2.32380087,27.0141851 L12.4904297,44.7331668 L41.2474655,44.7331668 L41.2474655,16.2666061 Z" id="Shape" sketch:type="MSShapeGroup"></path>
        </g>
        <g id="_x33_348" sketch:type="MSLayerGroup" transform="translate(41.334166, 157.047965)" stroke="#000000" stroke-width="0.5">
            <path d="M24.6903843,45.0236419 L0,30.7903616 L0,2.32380087 L28.7570358,2.32380087 L39.2141397,20.0427825 L24.6903843,45.0236419 Z" id="Shape" sketch:type="MSShapeGroup"></path>
        </g>
        <g id="_x33_349" sketch:type="MSLayerGroup" transform="translate(64.572175, 177.381223)" stroke="#000000" stroke-width="0.5">
            <path d="M26.1427598,39.2141397 L1.45237555,24.9808594 L15.976131,0 L36.3093886,0 L50.8331441,24.9808594 L26.1427598,39.2141397 Z" id="Shape" sketch:type="MSShapeGroup"></path>
        </g>
        <g id="_x33_350" sketch:type="MSLayerGroup" transform="translate(99.429188, 157.047965)" stroke="#000000" stroke-width="0.5">
            <path d="M15.1047057,44.4426917 L39.7950899,30.2094113 L39.7950899,1.45237555 L11.0380541,1.45237555 L0.871425327,19.4618323 L15.1047057,44.4426917 Z" id="Shape" sketch:type="MSShapeGroup"></path>
        </g>
        <g id="_x33_351" sketch:type="MSLayerGroup" transform="translate(137.190952, 157.047965)" stroke="#000000" stroke-width="0.5">
            <path d="M27.0141851,44.7331668 L2.32380087,30.4998864 L2.32380087,2.03332576 L31.0808367,2.03332576 L41.5379406,19.7523074 L27.0141851,44.7331668 Z" id="Shape" sketch:type="MSShapeGroup"></path>
        </g>
        <g id="_x33_352" sketch:type="MSLayerGroup" transform="translate(113.952943, 189.000227)" stroke="#000000" stroke-width="0.5">
            <path d="M50.2521939,15.3951808 L25.5618096,1.16190044 L0.871425327,15.3951808 L15.3951808,40.3760402 L36.0189135,40.3760402 L50.2521939,15.3951808 Z" id="Shape" sketch:type="MSShapeGroup"></path>
        </g>
        <g id="_x33_353" sketch:type="MSLayerGroup" transform="translate(90.714935, 203.523983)" stroke="#000000" stroke-width="0.5">
            <path d="M0.580950218,15.6856559 L25.5618096,1.45237555 L39.7950899,26.72371 L29.6284611,44.4426917 L0.580950218,44.1522166 L0.580950218,15.6856559 Z" id="Shape" sketch:type="MSShapeGroup"></path>
        </g>
        <g id="_x33_354" sketch:type="MSLayerGroup" transform="translate(50.048419, 203.523983)" stroke="#000000" stroke-width="0.5">
            <path d="M15.1047057,0.290475109 L39.7950899,14.5237555 L39.7950899,42.9903161 L11.0380541,42.9903161 L0.871425327,25.2713345 L15.1047057,0.290475109 Z" id="Shape" sketch:type="MSShapeGroup"></path>
        </g>
        <g id="_x33_355" sketch:type="MSLayerGroup" transform="translate(15.191406, 186.095476)" stroke="#000000" stroke-width="0.5">
            <path d="M50.542669,16.2666061 L25.8522847,2.03332576 L1.16190044,16.2666061 L15.6856559,41.2474655 L36.0189135,41.2474655 L50.542669,16.2666061 Z" id="Shape" sketch:type="MSShapeGroup"></path>
        </g>
        <g id="_x33_347" sketch:type="MSLayerGroup" transform="translate(0.667651, 157.047965)" stroke="#000000" stroke-width="0.5">
            <path d="M15.3951808,45.0236419 L40.085565,30.7903616 L40.085565,2.32380087 L11.3285293,2.32380087 L1.16190044,20.0427825 L15.3951808,45.0236419 Z" id="Shape" sketch:type="MSShapeGroup"></path>
        </g>
        <g id="_x33_364" sketch:type="MSLayerGroup" transform="translate(87.810184, 0.191406)" stroke="#000000" stroke-width="0.5">
            <path d="M27.3046602,1.16190044 L2.61427598,15.3951808 L2.61427598,43.8617415 L31.3713118,43.8617415 L41.5379406,26.1427598 L27.3046602,1.16190044 Z" id="Shape" sketch:type="MSShapeGroup"></path>
        </g>
        <g id="_x33_365" sketch:type="MSLayerGroup" transform="translate(90.714935, 43.762673)" stroke="#000000" stroke-width="0.5">
            <path d="M25.2713345,44.4426917 L0.580950218,30.2094113 L0.580950218,1.74285065 L29.6284611,1.74285065 L39.7950899,19.4618323 L25.2713345,44.4426917 Z" id="Shape" sketch:type="MSShapeGroup"></path>
        </g>
        <g id="_x33_366" sketch:type="MSLayerGroup" transform="translate(64.572175, 72.810184)" stroke="#000000" stroke-width="0.5">
            <path d="M50.8331441,15.976131 L26.1427598,1.74285065 L1.45237555,16.2666061 L15.976131,41.2474655 L36.3093886,40.9569904 L50.8331441,15.976131 Z" id="Shape" sketch:type="MSShapeGroup"></path>
        </g>
        <g id="_x33_367" sketch:type="MSLayerGroup" transform="translate(41.334166, 90.238690)" stroke="#000000" stroke-width="0.5">
            <path d="M0.871425327,14.2332803 L25.5618096,0 L40.085565,24.9808594 L29.9189362,42.699841 L0.871425327,42.699841 L0.871425327,14.2332803 Z" id="Shape" sketch:type="MSShapeGroup"></path>
        </g>
        <g id="_x33_360" sketch:type="MSLayerGroup" transform="translate(0.667651, 87.333939)" stroke="#000000" stroke-width="0.5">
            <path d="M40.085565,16.2666061 L15.3951808,2.03332576 L1.16190044,27.0141851 L11.3285293,44.7331668 L40.085565,44.7331668 L40.085565,16.2666061 Z" id="Shape" sketch:type="MSShapeGroup"></path>
        </g>
        <g id="_x33_361" sketch:type="MSLayerGroup" transform="translate(15.191406, 64.095930)" stroke="#000000" stroke-width="0.5">
            <path d="M25.8522847,40.6665153 L1.16190044,26.1427598 L15.3951808,1.16190044 L36.0189135,1.16190044 L50.542669,26.1427598 L25.8522847,40.6665153 Z" id="Shape" sketch:type="MSShapeGroup"></path>
        </g>
        <g id="_x33_362" sketch:type="MSLayerGroup" transform="translate(50.048419, 46.667424)" stroke="#000000" stroke-width="0.5">
            <path d="M15.1047057,43.2807912 L39.7950899,29.0475109 L39.7950899,0.580950218 L11.0380541,0.580950218 L0.871425327,18.2999319 L15.1047057,43.2807912 Z" id="Shape" sketch:type="MSShapeGroup"></path>
        </g>
        <g id="_x33_363" sketch:type="MSLayerGroup" transform="translate(47.143668, 3.096157)" stroke="#000000" stroke-width="0.5">
            <path d="M17.1380314,0.871425327 L41.8284157,15.1047057 L41.8284157,43.8617415 L12.7809048,43.8617415 L2.61427598,25.8522847 L17.1380314,0.871425327 Z" id="Shape" sketch:type="MSShapeGroup"></path>
        </g>
    </g>
</svg>